<svg width="544" height="495" viewBox="0 0 544 495" fill="none" xmlns="http://www.w3.org/2000/svg">
<path fill-rule="evenodd" clip-rule="evenodd" d="M533.488 211.547L531.726 215.405L529.831 219.218L527.808 222.983L525.661 226.697L523.393 230.355L521.01 233.956L518.516 237.496L515.917 240.973L513.218 244.384L510.424 247.727L507.539 251L504.571 254.202L501.525 257.331L498.406 260.386L495.221 263.366L491.976 266.27L488.679 269.098L485.335 271.851L481.953 274.528L478.54 277.131L475.105 279.661L471.658 282.12L468.206 284.511L464.76 286.836L461.329 289.099L457.924 291.305L454.555 293.457L451.231 295.561L447.961 297.623L444.756 299.647L441.623 301.641L438.569 303.61L435.601 305.561L432.725 307.499L429.946 309.432L427.269 311.366L424.697 313.307L422.233 315.261L419.878 317.234L417.633 319.233L415.498 321.262L413.472 323.326L411.555 325.431L409.743 327.58L408.033 329.778L406.421 332.028L404.903 334.332L403.474 336.693L402.127 339.113L400.857 341.592L399.657 344.131L398.519 346.731L397.437 349.39L396.402 352.108L395.407 354.881L394.444 357.709L393.504 360.588L392.579 363.516L391.662 366.487L390.744 369.497L389.817 372.543L388.875 375.62L387.91 378.721L386.915 381.842L385.884 384.977L384.811 388.12L383.69 391.266L382.517 394.408L381.286 397.541L379.994 400.66L378.637 403.758L377.212 406.83L375.718 409.872L374.151 412.879L372.512 415.845L370.799 418.768L369.012 421.644L367.151 424.468L365.216 427.239L363.209 429.953L361.131 432.609L358.984 435.205L356.769 437.741L354.489 440.214L352.146 442.626L349.743 444.975L347.282 447.262L344.766 449.489L342.197 451.655L339.578 453.761L336.913 455.81L334.202 457.802L331.45 459.739L328.658 461.623L325.829 463.454L322.964 465.236L320.066 466.968L317.136 468.654L314.177 470.294L311.189 471.89L308.175 473.443L305.136 474.955L302.072 476.428L298.986 477.864L295.878 479.262L292.749 480.625L289.598 481.95L286.427 483.236L283.235 484.48L280.022 485.679L276.787 486.828L273.531 487.922L270.253 488.955L266.953 489.921L263.632 490.814L260.29 491.625L256.929 492.349L253.549 492.979L250.153 493.506L246.741 493.924L243.317 494.226L239.882 494.407L236.441 494.459L232.995 494.377L229.549 494.158L226.107 493.795L222.672 493.287L219.248 492.63L215.841 491.822L212.454 490.863L209.093 489.752L205.76 488.491L202.462 487.08L199.202 485.522L195.985 483.82L192.814 481.979L189.694 480.004L186.627 477.9L183.618 475.674L180.668 473.332L177.781 470.883L174.958 468.335L172.201 465.696L169.512 462.976L166.89 460.184L164.336 457.33L161.851 454.424L159.432 451.477L157.079 448.498L154.791 445.498L152.564 442.487L150.396 439.474L148.285 436.47L146.227 433.484L144.218 430.526L142.254 427.603L140.33 424.723L138.442 421.896L136.585 419.128L134.755 416.424L132.945 413.792L131.15 411.237L129.366 408.762L127.586 406.373L125.806 404.071L124.021 401.859L122.225 399.74L120.414 397.714L118.582 395.781L116.726 393.942L114.841 392.194L112.924 390.537L110.97 388.969L108.978 387.486L106.942 386.085L104.862 384.763L102.736 383.516L100.561 382.338L98.3358 381.226L96.0604 380.173L93.734 379.174L91.3567 378.224L88.929 377.315L86.4519 376.443L83.9268 375.6L81.3558 374.78L78.7413 373.976L76.0864 373.181L73.395 372.387L70.6714 371.587L67.9203 370.774L65.1471 369.94L62.3578 369.079L59.559 368.183L56.7576 367.244L53.9611 366.256L51.1772 365.212L48.4134 364.106L45.6774 362.934L42.9764 361.691L40.3174 360.374L37.7071 358.979L35.1519 357.504L32.6582 355.948L30.2318 354.309L27.8783 352.587L25.603 350.783L23.4105 348.895L21.3055 346.926L19.2917 344.877L17.3729 342.75L15.5521 340.547L13.8319 338.271L12.2145 335.924L10.7015 333.511L9.29412 331.034L7.99282 328.497L6.7977 325.905L5.70827 323.262L4.72349 320.572L3.84182 317.84L3.06116 315.07L2.37891 312.268L1.79196 309.436L1.29676 306.581L0.889275 303.707L0.565078 300.818L0.319353 297.918L0.146945 295.012L0.0423963 292.104L0 289.197L0.0138421 286.295L0.0778554 283.401L0.185871 280.517L0.331673 277.647L0.509054 274.793L0.711866 271.956L0.93408 269.138L1.16983 266.34L1.41349 263.564L1.65968 260.809L1.90334 258.077L2.13979 255.366L2.36472 252.677L2.57428 250.009L2.76504 247.361L2.93411 244.732L3.07905 242.12L3.19797 239.525L3.2895 236.944L3.35278 234.376L3.38748 231.819L3.39377 229.272L3.3723 226.732L3.32421 224.197L3.25105 221.666L3.15479 219.137L3.03776 216.609L2.9026 214.079L2.75225 211.547L2.58986 209.011L2.41877 206.47L2.24244 203.924L2.06442 201.37L1.88828 198.81L1.71758 196.242L1.55581 193.666L1.40637 191.082L1.27252 188.49L1.15735 185.891L1.06378 183.284L0.994522 180.669L0.952093 178.048L0.938827 175.421L0.956883 172.789L1.00828 170.151L1.09489 167.51L1.21839 164.866L1.38055 162.219L1.58333 159.572L1.82884 156.925L2.1193 154.279L2.45694 151.636L2.84402 148.998L3.28276 146.366L3.77534 143.743L4.32389 141.13L4.93045 138.529L5.59677 135.942L6.32417 133.372L7.11335 130.82L7.96448 128.288L8.87718 125.778L9.85068 123.291L10.8838 120.827L11.975 118.389L13.1224 115.977L14.3241 113.592L15.5778 111.233L16.881 108.902L18.2313 106.598L19.6259 104.322L21.0623 102.072L22.5377 99.8491L24.0494 97.6521L25.5948 95.4805L27.1712 93.3336L28.7762 91.2103L30.4072 89.1098L32.062 87.031L33.7384 84.9729L35.4343 82.9343L37.1479 80.9141L38.8774 78.9111L40.6214 76.9243L42.3783 74.9525L44.1472 72.9948L45.9268 71.05L47.7166 69.1173L49.5157 67.1958L51.3238 65.2848L53.1405 63.3836L54.9657 61.4918L56.7995 59.6088L58.642 57.7345L60.4936 55.8687L62.3547 54.0114L64.2258 52.1627L66.1076 50.3229L68.0008 48.4925L69.9063 46.672L71.8249 44.8622L73.7577 43.064L75.7054 41.2783L77.6693 39.5064L79.6502 37.7494L81.6491 36.009L83.6672 34.2865L85.7053 32.5837L87.7645 30.9023L89.8455 29.2443L91.9494 27.6116L94.0769 26.0063L96.2286 24.4306L98.4053 22.8867L100.608 21.3769L102.836 19.9036L105.091 18.4691L107.372 17.0759L109.68 15.7263L112.015 14.4229L114.376 13.1679L116.764 11.9636L119.178 10.8123L121.618 9.71608L124.082 8.67672L126.57 7.69593L129.081 6.77508L131.613 5.91519L134.166 5.11683L136.737 4.38008L139.324 3.70437L141.926 3.08844L144.541 2.53055L147.166 2.02883L149.8 1.5819L152.441 1.18905L155.088 0.850172L157.74 0.56572L160.396 0.336704L163.055 0.164647L165.716 0.0515747L168.378 0L171.042 0.0129129L173.704 0.0935761L176.365 0.245208L179.023 0.470993L181.677 0.774068L184.325 1.15742L186.965 1.62377L189.596 2.1755L192.214 2.81458L194.819 3.54247L197.407 4.36006L199.977 5.26767L202.525 6.26495L205.049 7.3509L207.547 8.52382L210.016 9.78132L212.454 11.1203L214.859 12.537L217.229 14.027L219.561 15.5852L221.855 17.2059L224.108 18.8829L226.321 20.6093L228.493 22.3781L230.623 24.1815L232.711 26.0116L234.758 27.86L236.765 29.7185L238.734 31.5782L240.665 33.4307L242.562 35.2671L244.427 37.079L246.262 38.8579L248.072 40.5955L249.86 42.284L251.63 43.9157L253.385 45.4835L255.132 46.9807L256.874 48.4011L258.617 49.7391L260.366 50.9897L262.125 52.1485L263.901 53.2117L265.698 54.1765L267.522 55.0404L269.378 55.8018L271.271 56.46L273.206 57.0147L275.189 57.4664L277.223 57.8164L279.312 58.0664L281.462 58.219L283.675 58.2772L285.955 58.2447L288.306 58.1255L290.729 57.9242L293.228 57.6457L295.804 57.2956L298.46 56.8792L301.196 56.4026L304.013 55.8719L306.913 55.2932L309.895 54.673L312.96 54.0175L316.108 53.3334L319.337 52.6269L322.648 51.9044L326.038 51.1724L329.508 50.4371L333.054 49.7047L336.676 48.9814L340.371 48.2734L344.137 47.5867L347.971 46.9277L351.869 46.3025L355.828 45.7177L359.843 45.1798L363.909 44.6955L368.023 44.2708L372.178 43.9111L376.37 43.621L380.597 43.4047L384.852 43.2656L389.134 43.2071L393.437 43.232L397.757 43.3432L402.091 43.5435L406.434 43.8355L410.781 44.2219L415.127 44.7047L419.469 45.286L423.801 45.9675L428.119 46.7509L432.418 47.6372L436.693 48.6277L440.941 49.723L445.157 50.9237L449.337 52.2301L453.475 53.6424L457.569 55.1603L461.614 56.7836L465.605 58.5117L469.54 60.344L473.415 62.2796L477.224 64.3175L480.966 66.4566L484.635 68.6956L488.228 71.0332L491.742 73.4679L495.172 75.998L498.515 78.6219L501.767 81.3377L504.925 84.1436L507.984 87.0375L510.941 90.0173L513.791 93.0807L516.532 96.2254L519.159 99.4489L521.669 102.749L524.057 106.122L526.321 109.565L528.456 113.077L530.459 116.653L532.327 120.289L534.056 123.984L535.643 127.733L537.086 131.532L538.381 135.378L539.527 139.267L540.52 143.194L541.359 147.156L542.043 151.148L542.569 155.165L542.938 159.204L543.147 163.259L543.197 167.326L543.088 171.401L542.82 175.478L542.394 179.554L541.81 183.623L541.071 187.681L540.178 191.723L539.133 195.745L537.938 199.743L536.597 203.712L535.113 207.648L533.488 211.547Z" fill="url(#paint0_linear_1_258)"/>
<defs>
<linearGradient id="paint0_linear_1_258" x1="515.773" y1="-289.852" x2="763.956" y2="151.774" gradientUnits="userSpaceOnUse">
<stop stop-color="#80E8C4"/>
<stop offset="1" stop-color="#C9940F"/>
</linearGradient>
</defs>
</svg>
