<svg width="615" height="575" viewBox="0 0 615 575" fill="none" xmlns="http://www.w3.org/2000/svg">
<path fill-rule="evenodd" clip-rule="evenodd" d="M611.665 322.674V322.674L612.025 325.985L612.358 329.303L612.661 332.629L612.936 335.963L613.181 339.304L613.396 342.652L613.58 346.006L613.732 349.368L613.852 352.736L613.94 356.11L613.994 359.489L614.015 362.874L614.002 366.264L613.954 369.658L613.87 373.057L613.751 376.46L613.595 379.865L613.402 383.274L613.172 386.685L612.904 390.098L612.596 393.512L612.249 396.927L611.862 400.342L611.435 403.756L610.965 407.169L610.454 410.58L609.899 413.987L609.301 417.392L608.658 420.791L607.97 424.185L607.237 427.573L606.456 430.954L605.628 434.326L604.752 437.688L603.827 441.04L602.853 444.381L601.828 447.708L600.752 451.022L599.624 454.32L598.445 457.601L597.212 460.865L595.927 464.109L594.587 467.332L593.193 470.533L591.745 473.711L590.241 476.864L588.683 479.991L587.069 483.09L585.399 486.159L583.674 489.198L581.892 492.204L580.055 495.177L578.162 498.114L576.213 501.014L574.207 503.875L572.147 506.697L570.03 509.476L567.858 512.213L565.632 514.904L563.351 517.55L561.015 520.147L558.627 522.695L556.185 525.192L553.691 527.637L551.146 530.029L548.55 532.365L545.905 534.646L543.211 536.868L540.469 539.032L537.682 541.137L534.849 543.18L531.972 545.162L529.052 547.081L526.092 548.936L523.092 550.727L520.054 552.453L516.98 554.114L513.871 555.709L510.729 557.237L507.556 558.699L504.353 560.094L501.123 561.422L497.868 562.683L494.588 563.878L491.287 565.005L487.966 566.067L484.627 567.063L481.272 567.994L477.904 568.86L474.523 569.662L471.132 570.4L467.733 571.077L464.328 571.692L460.919 572.247L457.507 572.743L454.094 573.182L450.683 573.564L447.275 573.89L443.871 574.163L440.474 574.384L437.084 574.554L433.704 574.675L430.334 574.749L426.977 574.776L423.634 574.76L420.305 574.702L416.992 574.604L413.697 574.468L410.42 574.295L407.162 574.087L403.924 573.848L400.708 573.578L397.513 573.281L394.342 572.957L391.193 572.609L388.068 572.239L384.967 571.849L381.891 571.442L378.839 571.018L375.813 570.581L372.811 570.131L369.834 569.671L366.883 569.203L363.956 568.729L361.054 568.249L358.176 567.767L355.322 567.282L352.492 566.798L349.684 566.315L346.899 565.835L344.136 565.358L341.394 564.887L338.673 564.422L335.971 563.965L333.289 563.517L330.624 563.078L327.976 562.65L325.345 562.233L322.73 561.828L320.128 561.437L317.54 561.06L314.965 560.697L312.4 560.349L309.847 560.018L307.302 559.704L304.765 559.407L302.235 559.128L299.711 558.866L297.192 558.623L294.676 558.397L292.163 558.189L289.65 557.997L287.138 557.821L284.626 557.66L282.111 557.513L279.594 557.379L277.073 557.256L274.548 557.143L272.018 557.038L269.482 556.938L266.94 556.843L264.392 556.75L261.837 556.657L259.275 556.562L256.705 556.461L254.129 556.354L251.546 556.236L248.956 556.107L246.36 555.963L243.758 555.801L241.15 555.619L238.538 555.415L235.922 555.185L233.304 554.928L230.683 554.64L228.062 554.32L225.442 553.964L222.823 553.572L220.208 553.139L217.597 552.665L214.992 552.147L212.395 551.583L209.808 550.972L207.232 550.312L204.668 549.601L202.119 548.838L199.587 548.022L197.072 547.152L194.578 546.227L192.105 545.247L189.655 544.21L187.231 543.117L184.833 541.967L182.463 540.76L180.123 539.497L177.814 538.178L175.538 536.803L173.296 535.374L171.089 533.89L168.917 532.354L166.783 530.766L164.686 529.127L162.628 527.44L160.609 525.707L158.628 523.928L156.687 522.107L154.785 520.245L152.921 518.345L151.095 516.41L149.306 514.442L147.553 512.444L145.835 510.419L144.151 508.369L142.499 506.297L140.878 504.207L139.285 502.101L137.718 499.982L136.176 497.852L134.655 495.715L133.154 493.572L131.669 491.427L130.199 489.282L128.74 487.139L127.29 485L125.845 482.868L124.402 480.743L122.96 478.629L121.514 476.525L120.061 474.434L118.6 472.357L117.127 470.293L115.639 468.246L114.134 466.213L112.608 464.197L111.06 462.196L109.488 460.211L107.889 458.242L106.261 456.287L104.603 454.346L102.913 452.419L101.19 450.503L99.4332 448.597L97.6413 446.701L95.8139 444.811L93.9509 442.927L92.052 441.047L90.1173 439.169L88.1472 437.291L86.1422 435.41L84.1031 433.525L82.0307 431.633L79.9264 429.733L77.7915 427.821L75.6277 425.897L73.4369 423.957L71.2211 421.999L68.9826 420.022L66.7239 418.022L64.4477 415.999L62.1567 413.95L59.854 411.873L57.5429 409.766L55.2266 407.628L52.9087 405.457L50.5927 403.251L48.2824 401.009L45.9816 398.729L43.6943 396.411L41.4245 394.054L39.1761 391.657L36.9534 389.218L34.7605 386.738L32.6014 384.217L30.4804 381.653L28.4015 379.047L26.3689 376.399L24.3866 373.71L22.4585 370.98L20.5885 368.209L18.7805 365.398L17.038 362.549L15.3647 359.662L13.7639 356.739L12.2389 353.781L10.7927 350.79L9.4282 347.766L8.1481 344.713L6.9549 341.632L5.85084 338.525L4.83799 335.394L3.91814 332.241L3.09286 329.068L2.36347 325.879L1.73104 322.674L1.19639 319.457L0.760063 316.23L0.422347 312.996L0.183272 309.756L0.0426201 306.513L0 303.27L0.0548766 300.029L0.206567 296.792L0.454239 293.562L0.796906 290.34L1.23343 287.13L1.76252 283.933L2.38271 280.751L3.09242 277.586L3.88989 274.44L4.7732 271.316L5.74033 268.214L6.78907 265.136L7.91711 262.085L9.12199 259.061L10.4011 256.065L11.7519 253.1L13.1714 250.165L14.6569 247.262L16.2052 244.393L17.8135 241.556L19.4785 238.754L21.1972 235.986L22.9663 233.252L24.7826 230.554L26.6428 227.89L28.5438 225.261L30.4822 222.667L32.455 220.106L34.459 217.58L36.491 215.086L38.548 212.625L40.6272 210.196L42.7256 207.797L44.8406 205.428L46.9695 203.088L49.1099 200.776L51.2595 198.49L53.4161 196.229L55.5778 193.993L57.7428 191.78L59.9093 189.589L62.076 187.419L64.2412 185.268L66.4035 183.136L68.5617 181.02L70.7143 178.92L72.8602 176.833L74.9984 174.759L77.1276 172.697L79.247 170.644L81.3558 168.598L83.4532 166.56L85.5385 164.526L87.6111 162.496L89.6706 160.468L91.7167 158.441L93.7491 156.412L95.7676 154.381L97.7721 152.347L99.7627 150.307L101.74 148.261L103.703 146.207L105.653 144.144L107.591 142.071L109.516 139.987L111.43 137.89L113.334 135.78L115.227 133.657L117.111 131.518L118.987 129.364L120.856 127.194L122.719 125.007L124.577 122.803L126.432 120.581L128.285 118.342L130.136 116.085L131.989 113.81L133.843 111.517L135.701 109.207L137.564 106.879L139.434 104.535L141.311 102.174L143.199 99.7974L145.098 97.4055L147.009 94.9993L148.935 92.5797L150.877 90.1476L152.837 87.7041L154.815 85.2505L156.815 82.7879L158.836 80.3177L160.881 77.8413L162.951 75.3603L165.047 72.8762L167.17 70.3907L169.323 67.9054L171.505 65.4221L173.718 62.9428L175.964 60.4697L178.244 58.0049L180.558 55.551L182.907 53.1106L185.294 50.6863L187.718 48.2812L190.181 45.8981L192.683 43.5402L195.226 41.2106L197.808 38.9126L200.432 36.6495L203.098 34.4245L205.805 32.2412L208.554 30.1028L211.344 28.0127L214.176 25.9744L217.05 23.9911L219.964 22.0662L222.918 20.2029L225.912 18.4044L228.944 16.6738L232.014 15.0142L235.12 13.4285L238.262 11.9195L241.437 10.4899L244.645 9.14236L247.884 7.87926L251.152 6.70296L254.446 5.61564L257.767 4.61933L261.11 3.71592L264.475 2.90713L267.859 2.19456L271.26 1.5796L274.675 1.06354L278.103 0.647475L281.54 0.332361L284.985 0.119L288.435 0.00804454L291.888 0L295.34 0.0951971L298.79 0.293719L302.235 0.595386L305.673 0.999751L309.1 1.50611L312.515 2.11349L315.915 2.82068L319.298 3.6262L322.661 4.52835L326.002 5.52516L329.32 6.61447L332.612 7.79387L335.875 9.06076L339.109 10.4123L342.312 11.8456L345.482 13.3574L348.618 14.9445L351.719 16.6032L354.782 18.3302L357.809 20.1215L360.797 21.9735L363.746 23.8821L366.656 25.8435L369.526 27.8536L372.357 29.9082L375.148 32.0034L377.899 34.1351L380.612 36.299L383.286 38.4912L385.922 40.7077L388.521 42.9444L391.084 45.1975L393.612 47.4632L396.106 49.7377L398.569 52.0175L401 54.2991L403.402 56.5791L405.777 58.8544L408.126 61.122L410.451 63.3789L412.755 65.6227L415.038 67.8506L417.304 70.0606L419.553 72.2505L421.789 74.4184L424.013 76.5627L426.228 78.6819L428.434 80.7748L430.635 82.8404L432.833 84.878L435.028 86.8869L437.224 88.8668L439.422 90.8176L441.623 92.7394L443.83 94.6324L446.043 96.4972L448.265 98.3344L450.495 100.145L452.737 101.93L454.989 103.69L457.255 105.427L459.534 107.142L461.827 108.836L464.135 110.511L466.458 112.17L468.797 113.813L471.151 115.443L473.521 117.061L475.906 118.671L478.307 120.273L480.723 121.87L483.152 123.465L485.596 125.059L488.051 126.655L490.519 128.256L492.997 129.863L495.484 131.479L497.98 133.107L500.481 134.747L502.987 136.404L505.497 138.078L508.007 139.772L510.517 141.488L513.024 143.227L515.527 144.992L518.024 146.784L520.511 148.605L522.988 150.456L525.452 152.339L527.902 154.255L530.334 156.205L532.748 158.19L535.14 160.21L537.51 162.267L539.855 164.361L542.174 166.492L544.464 168.661L546.725 170.867L548.955 173.111L551.153 175.393L553.317 177.712L555.446 180.069L557.539 182.462L559.595 184.892L561.613 187.357L563.591 189.859L565.53 192.394L567.428 194.964L569.285 197.568L571.099 200.204L572.872 202.872L574.602 205.57L576.289 208.299L577.932 211.057L579.532 213.843L581.089 216.657L582.603 219.496L584.074 222.362L585.501 225.251L586.886 228.164L588.229 231.099L589.53 234.056L590.79 237.033L592.009 240.03L593.188 243.045L594.327 246.079L595.428 249.129L596.49 252.196L597.516 255.279L598.505 258.376L599.458 261.487L600.376 264.612L601.26 267.749L602.11 270.899L602.928 274.061L603.714 277.234L604.468 280.418L605.193 283.612L605.887 286.817L606.552 290.032L607.188 293.256L607.795 296.49L608.375 299.732L608.927 302.984L609.451 306.245L609.948 309.514L610.418 312.792L610.861 316.078L611.277 319.372L611.665 322.674" fill="url(#paint0_linear_10_86)"/>
<defs>
<linearGradient id="paint0_linear_10_86" x1="-311.856" y1="-29.8098" x2="-257.128" y2="-602.344" gradientUnits="userSpaceOnUse">
<stop stop-color="#17CFC7"/>
<stop offset="1" stop-color="#541CAD"/>
</linearGradient>
</defs>
</svg>
